{"asset":{"generator":"3D Builder","version":"2.0"},"scene":0,"scenes":[{"nodes":[0]}],"nodes":[{"mesh":0,"matrix":[39.370079040527344,0,0,0,0,-4.6932791519793682E-6,-39.370075225830078,0,0,39.370075225830078,-4.6932791519793682E-6,0,0,5.3338982120010314E-9,-1.513957847976144E-8,1]}],"meshes":[{"primitives":[{"attributes":{"POSITION":0},"mode":4,"indices":3,"material":0},{"attributes":{"POSITION":1},"mode":4,"indices":4,"material":1},{"attributes":{"POSITION":2},"mode":4,"indices":5,"material":2}]}],"materials":[{"name":"red","pbrMetallicRoughness":{"baseColorFactor":[0.80695235729217529,0.090841710567474365,0.086500450968742371,1],"metallicFactor":1,"roughnessFactor":1},"alphaMode":"OPAQUE"},{"name":"brown","pbrMetallicRoughness":{"baseColorFactor":[1,0.42954334616661072,0.20970113575458527,1],"metallicFactor":1,"roughnessFactor":1},"alphaMode":"OPAQUE"},{"name":"green","pbrMetallicRoughness":{"baseColorFactor":[0.145167276263237,0.7077566385269165,0.443433552980423,1],"metallicFactor":1,"roughnessFactor":1},"alphaMode":"OPAQUE"}],"accessors":[{"bufferView":0,"byteOffset":0,"count":60,"componentType":5126,"type":"VEC3","min":[-0.0024929409846663475,-0.0024929409846663475,-1.3548107080652017E-10],"max":[0.0024909465573728085,0.0024909465573728085,0.003986711148172617]},{"bufferView":0,"byteOffset":720,"count":11,"componentType":5126,"type":"VEC3","min":[-0.00024530527298338711,-0.00024530527298338711,0.0037334286607801914],"max":[0.00024331120948772877,0.00024331120948772877,0.00484428321942687]},{"bufferView":0,"byteOffset":852,"count":9,"componentType":5126,"type":"VEC3","min":[-0.00082366768037900329,-0.002409178065136075,0.0041103609837591648],"max":[0.00082167360233142972,-0.00019145777332596481,0.0044892886653542519]},{"bufferView":1,"byteOffset":0,"count":342,"componentType":5125,"type":"SCALAR"},{"bufferView":1,"byteOffset":1368,"count":45,"componentType":5125,"type":"SCALAR"},{"bufferView":1,"byteOffset":1548,"count":39,"componentType":5125,"type":"SCALAR"}],"bufferViews":[{"buffer":0,"byteOffset":0,"byteLength":960,"byteStride":12,"target":34962},{"buffer":0,"byteOffset":960,"byteLength":1704,"target":34963}],"buffers":[{"byteLength":2664,"uri":"apple.bin"}]}