{"asset":{"generator":"3D Builder","version":"2.0"},"scene":0,"scenes":[{"nodes":[0]}],"nodes":[{"mesh":0,"matrix":[39.370079040527344,0,0,0,0,-4.6932791519793682E-6,-39.370075225830078,0,0,39.370075225830078,-4.6932791519793682E-6,0,-0.049073640257120132,5.3338982120010314E-9,-1.513957847976144E-8,1]}],"meshes":[{"primitives":[{"attributes":{"POSITION":0},"mode":4,"indices":4,"material":0},{"attributes":{"POSITION":1},"mode":4,"indices":5,"material":1},{"attributes":{"POSITION":2},"mode":4,"indices":6,"material":2},{"attributes":{"POSITION":3},"mode":4,"indices":7,"material":3}]}],"materials":[{"name":"red","pbrMetallicRoughness":{"baseColorFactor":[0.80695235729217529,0.090841710567474365,0.086500450968742371,1],"metallicFactor":1,"roughnessFactor":1},"alphaMode":"OPAQUE"},{"name":"brownLight","pbrMetallicRoughness":{"baseColorFactor":[0.97867292165756226,0.64311105012893677,0.36741122603416443,1],"metallicFactor":1,"roughnessFactor":1},"alphaMode":"OPAQUE"},{"name":"brownDark","pbrMetallicRoughness":{"baseColorFactor":[0.59111422300338745,0.21276116371154785,0.11284331232309341,1],"metallicFactor":1,"roughnessFactor":1},"alphaMode":"OPAQUE"},{"name":"brown","pbrMetallicRoughness":{"baseColorFactor":[1,0.42954334616661072,0.20970113575458527,1],"metallicFactor":1,"roughnessFactor":1},"alphaMode":"OPAQUE"}],"accessors":[{"bufferView":0,"byteOffset":0,"count":61,"componentType":5126,"type":"VEC3","min":[0,-0.0024929409846663475,-1.3548107080652017E-10],"max":[0.0024909463245421648,0.0024929398205131292,0.0039867102168500423]},{"bufferView":0,"byteOffset":732,"count":33,"componentType":5126,"type":"VEC3","min":[0,-0.0020561777055263519,0.00042280257912352681],"max":[0,0.0020541830454021692,0.0035639076959341764]},{"bufferView":0,"byteOffset":1128,"count":8,"componentType":5126,"type":"VEC3","min":[0,-0.00063221011077985168,0.0017669959925115108],"max":[0,0.00063021510140970349,0.0022895161528140306]},{"bufferView":0,"byteOffset":1224,"count":8,"componentType":5126,"type":"VEC3","min":[0,-0.00024530565133318305,0.0037334279622882605],"max":[0.00024331100576091558,0.00024331064196303487,0.0048442822881042957]},{"bufferView":1,"byteOffset":0,"count":306,"componentType":5125,"type":"SCALAR"},{"bufferView":1,"byteOffset":1224,"count":132,"componentType":5125,"type":"SCALAR"},{"bufferView":1,"byteOffset":1752,"count":12,"componentType":5125,"type":"SCALAR"},{"bufferView":1,"byteOffset":1800,"count":30,"componentType":5125,"type":"SCALAR"}],"bufferViews":[{"buffer":0,"byteOffset":0,"byteLength":1320,"byteStride":12,"target":34962},{"buffer":0,"byteOffset":1320,"byteLength":1920,"target":34963}],"buffers":[{"byteLength":3240,"uri":"appleHalf.bin"}]}